<?xml version="1.0" encoding="utf-8"?><svg xmlns="http://www.w3.org/2000/svg" xmlns:xlink="http://www.w3.org/1999/xlink"><symbol viewBox="0 0 451.846 257.565" id="down" xmlns="http://www.w3.org/2000/svg"><path d="M225.922 257.565c-8.098 0-16.195-3.092-22.369-9.263L9.27 54.017c-12.36-12.36-12.36-32.397 0-44.751 12.354-12.354 32.388-12.354 44.748 0L225.922 181.18 397.828 9.27c12.36-12.353 32.391-12.353 44.744 0 12.365 12.355 12.365 32.393 0 44.752l-194.28 194.286c-6.178 6.172-14.275 9.257-22.37 9.257z"/></symbol><symbol viewBox="0 0 41.57 76.9" id="fc" xmlns="http://www.w3.org/2000/svg"><defs><clipPath id="ba" transform="translate(-939 -345.9)"><path d="M939 346h42v76.9h-42z"/></clipPath></defs><g clip-path="url(#ba)"><path d="M40 .02H30c-11.2 0-18.45 7.43-18.45 18.93v8.72h-10a1.57 1.57 0 00-1.57 1.57v12.65a1.56 1.56 0 001.57 1.56h10v31.9a1.57 1.57 0 001.57 1.57H26.2a1.57 1.57 0 001.57-1.57v-31.9h11.72a1.56 1.56 0 001.57-1.56V29.22a1.61 1.61 0 00-.46-1.11 1.57 1.57 0 00-1.11-.46H27.81v-7.39c0-3.56.85-5.36 5.48-5.36H40a1.56 1.56 0 001.56-1.56V1.59A1.56 1.56 0 0040 .02zm0 0"/></g></symbol><symbol viewBox="0 0 135.25 135.25" id="inst" xmlns="http://www.w3.org/2000/svg"><path d="M97.93 0H37.32A37.36 37.36 0 000 37.32v60.61a37.36 37.36 0 0037.32 37.32h60.61a37.37 37.37 0 0037.32-37.32V37.32A37.36 37.36 0 0097.93 0zm25.32 97.93a25.35 25.35 0 01-25.32 25.32H37.32A25.35 25.35 0 0112 97.93V37.32A25.35 25.35 0 0137.32 12h60.61a25.35 25.35 0 0125.32 25.32zm0 0"/><path d="M67.62 32.78a34.85 34.85 0 1034.86 34.85 34.89 34.89 0 00-34.86-34.85zm0 57.69a22.85 22.85 0 1122.86-22.84 22.87 22.87 0 01-22.86 22.84zm36.32-67.87a8.81 8.81 0 106.22 2.58 8.83 8.83 0 00-6.22-2.58zm0 0"/></symbol><symbol viewBox="0 0 132.596 240.822" id="next" xmlns="http://www.w3.org/2000/svg"><path d="M129.076 111.816L20.779 3.555c-4.752-4.74-12.451-4.74-17.215 0-4.752 4.74-4.752 12.439 0 17.179l99.707 99.671-99.695 99.671c-4.752 4.74-4.752 12.439 0 17.191 4.752 4.74 12.463 4.74 17.215 0l108.297-108.261c4.68-4.691 4.68-12.511-.012-17.19z"/></symbol><symbol viewBox="0 0 480.56 480.56" id="phone" xmlns="http://www.w3.org/2000/svg"><path d="M365.354 317.9c-15.7-15.5-35.3-15.5-50.9 0-11.9 11.8-23.8 23.6-35.5 35.6-3.2 3.3-5.9 4-9.8 1.8-7.7-4.2-15.9-7.6-23.3-12.2-34.5-21.7-63.4-49.6-89-81-12.7-15.6-24-32.3-31.9-51.1-1.6-3.8-1.3-6.3 1.8-9.4 11.9-11.5 23.5-23.3 35.2-35.1 16.3-16.4 16.3-35.6-.1-52.1-9.3-9.4-18.6-18.6-27.9-28-9.6-9.6-19.1-19.3-28.8-28.8-15.7-15.3-35.3-15.3-50.9.1-12 11.8-23.5 23.9-35.7 35.5-11.3 10.7-17 23.8-18.2 39.1-1.9 24.9 4.2 48.4 12.8 71.3 17.6 47.4 44.4 89.5 76.9 128.1 43.9 52.2 96.3 93.5 157.6 123.3 27.6 13.4 56.2 23.7 87.3 25.4 21.4 1.2 40-4.2 54.9-20.9 10.2-11.4 21.7-21.8 32.5-32.7 16-16.2 16.1-35.8.2-51.8-19-19.1-38.1-38.1-57.2-57.1zm-19.1-79.7l36.9-6.3c-5.8-33.9-21.8-64.6-46.1-89-25.7-25.7-58.2-41.9-94-46.9l-5.2 37.1c27.7 3.9 52.9 16.4 72.8 36.3 18.8 18.8 31.1 42.6 35.6 68.8zm57.7-160.4c-42.6-42.6-96.5-69.5-156-77.8l-5.2 37.1c51.4 7.2 98 30.5 134.8 67.2 34.9 34.9 57.8 79 66.1 127.5l36.9-6.3c-9.7-56.2-36.2-107.2-76.6-147.7z"/></symbol><symbol viewBox="0 0 132.596 240.822" id="prev" xmlns="http://www.w3.org/2000/svg"><path d="M3.52 129.006l108.297 108.261c4.752 4.74 12.451 4.74 17.215 0 4.752-4.74 4.752-12.439 0-17.179l-99.707-99.671 99.695-99.671c4.752-4.74 4.752-12.439 0-17.191-4.752-4.74-12.463-4.74-17.215 0L3.508 111.815c-4.679 4.691-4.679 12.511.012 17.191z"/></symbol><symbol viewBox="0 0 24 24" id="tg" xmlns="http://www.w3.org/2000/svg"><path d="M9.417 15.181l-.397 5.584c.568 0 .814-.244 1.109-.537l2.663-2.545 5.518 4.041c1.012.564 1.725.267 1.998-.931L23.93 3.821l.001-.001c.321-1.496-.541-2.081-1.527-1.714l-21.29 8.151c-1.453.564-1.431 1.374-.247 1.741l5.443 1.693L18.953 5.78c.595-.394 1.136-.176.691.218z"/></symbol><symbol viewBox="0 0 18 16" id="tw" xmlns="http://www.w3.org/2000/svg"><path d="M5.077 16c7.246 0 11.438-5.626 11.438-10.965 0-.147 1.03-1.03 1.47-2.874a.441.441 0 00-.616-.512c-.88.404-1.773.084-2.161-.376a3.874 3.874 0 00-5.574-.175 4.112 4.112 0 00-1.14 3.86C5.143 5.198 2.842 3.61.95 1.432c-.244-.283-.697-.134-.748.24-.28 2.082-.368 7.144 4.648 10.051-.871 1.252-2.576 1.991-4.474 2.308-.42.071-.52.653-.136.841a10.923 10.923 0 004.837 1.125"/></symbol><symbol viewBox="0 0 125.18 71.43" id="vk" xmlns="http://www.w3.org/2000/svg"><defs><clipPath id="ia" transform="translate(-897 -349)"><path d="M897 349h126v72H897z"/></clipPath></defs><g clip-path="url(#ia)"><path d="M124.52 64.5a8.38 8.38 0 00-.42-.81q-3.26-5.87-12.45-14.4l-.13-.14-.07-.06-.06-.07h-.07q-4.17-4-5.28-5.34a5 5 0 01-.91-5.28q.78-2 5.87-8.54 2.67-3.45 4.23-5.54 11.28-15 9.78-19.16l-.39-.65a3.82 3.82 0 00-2-1.08 10.3 10.3 0 00-4.17-.16l-18.77.13a2.44 2.44 0 00-1.31 0l-.85.2-.32.16-.26.2a2.75 2.75 0 00-.72.68 4.84 4.84 0 00-.65 1.14 105.75 105.75 0 01-7 14.67c-1.61 2.69-3.09 5-4.44 7a33 33 0 01-3.38 4.37 23.14 23.14 0 01-2.48 2.25c-.74.56-1.3.8-1.69.72l-1.11-.27A4.33 4.33 0 0174 33a7.12 7.12 0 01-.75-2.55c-.13-1-.21-1.89-.23-2.63s0-1.79 0-3.13.06-2.26.06-2.74c0-1.65 0-3.45.1-5.38s.12-3.46.16-4.59.07-2.33.07-3.59a15.12 15.12 0 00-.23-3 9.85 9.85 0 00-.69-2.09 3.51 3.51 0 00-1.33-1.56 7.41 7.41 0 00-2.18-.88 43.24 43.24 0 00-8.8-.85Q48.06-.12 44.6 1.57a8.69 8.69 0 00-2.48 2c-.78 1-.89 1.48-.33 1.56 2.61.39 4.46 1.33 5.55 2.8l.39.79a12.36 12.36 0 01.91 3 29.81 29.81 0 01.58 4.75 50 50 0 010 8.15c-.21 2.26-.42 4-.61 5.28a10.68 10.68 0 01-.88 3.06 12.51 12.51 0 01-.79 1.44 1.16 1.16 0 01-.32.32 4.82 4.82 0 01-1.76.33 4.12 4.12 0 01-2.22-.91 15.37 15.37 0 01-2.7-2.52 32.6 32.6 0 01-3.17-4.46q-1.76-2.87-3.64-6.78l-1-1.89q-1-1.81-2.67-5.31t-3-6.75a4.28 4.28 0 00-1.56-2.08l-.33-.2a4.76 4.76 0 00-1-.55 6.43 6.43 0 00-1.5-.42L4.21 3.3c-1.82 0-3.06.42-3.71 1.24l-.27.39a2.28 2.28 0 00-.19 1.05 5.22 5.22 0 00.39 1.76q3.92 9.18 8.51 17.72t8 13.76q3.39 5.22 6.91 9.84t4.66 5.93c.76.87 1.36 1.52 1.79 2l1.63 1.56a38.36 38.36 0 004.6 3.75 79.65 79.65 0 006.71 4.3 36.93 36.93 0 008.57 3.46 29.47 29.47 0 009.52 1.07h7.5a5.21 5.21 0 003.45-1.43l.26-.33a4.12 4.12 0 00.48-1.21 6.26 6.26 0 00.23-1.79 21.43 21.43 0 01.43-5.05 12.88 12.88 0 011.11-3.38 7.8 7.8 0 011.4-1.93 5.57 5.57 0 011.11-.94 3 3 0 01.52-.23c1-.35 2.27 0 3.68 1a21.66 21.66 0 014 3.78c1.24 1.5 2.72 3.18 4.46 5.05a30.58 30.58 0 004.56 4.17l1.31.78a15.73 15.73 0 003.39 1.44 7.33 7.33 0 003.65.33l16.68-.27a7.61 7.61 0 003.85-.81 3.22 3.22 0 001.62-1.79 5 5 0 000-2.22 8.85 8.85 0 00-.46-1.73zm0 0"/></g></symbol></svg>