<svg data-name="Слой 1" xmlns="http://www.w3.org/2000/svg" viewBox="0 0 125.18 71.43"><defs><clipPath id="a" transform="translate(-897 -349)"><path fill="none" d="M897 349h126v72H897z"/></clipPath></defs><g clip-path="url(#a)"><path d="M124.52 64.5a8.38 8.38 0 00-.42-.81q-3.26-5.87-12.45-14.4l-.13-.14-.07-.06-.06-.07h-.07q-4.17-4-5.28-5.34a5 5 0 01-.91-5.28q.78-2 5.87-8.54 2.67-3.45 4.23-5.54 11.28-15 9.78-19.16l-.39-.65a3.82 3.82 0 00-2-1.08 10.3 10.3 0 00-4.17-.16l-18.77.13a2.44 2.44 0 00-1.31 0l-.85.2-.32.16-.26.2a2.75 2.75 0 00-.72.68 4.84 4.84 0 00-.65 1.14 105.75 105.75 0 01-7 14.67c-1.61 2.69-3.09 5-4.44 7a33 33 0 01-3.38 4.37 23.14 23.14 0 01-2.48 2.25c-.74.56-1.3.8-1.69.72l-1.11-.27A4.33 4.33 0 0174 33a7.12 7.12 0 01-.75-2.55c-.13-1-.21-1.89-.23-2.63s0-1.79 0-3.13.06-2.26.06-2.74c0-1.65 0-3.45.1-5.38s.12-3.46.16-4.59.07-2.33.07-3.59a15.12 15.12 0 00-.23-3 9.85 9.85 0 00-.69-2.09 3.51 3.51 0 00-1.33-1.56 7.41 7.41 0 00-2.18-.88 43.24 43.24 0 00-8.8-.85Q48.06-.12 44.6 1.57a8.69 8.69 0 00-2.48 2c-.78 1-.89 1.48-.33 1.56 2.61.39 4.46 1.33 5.55 2.8l.39.79a12.36 12.36 0 01.91 3 29.81 29.81 0 01.58 4.75 50 50 0 010 8.15c-.21 2.26-.42 4-.61 5.28a10.68 10.68 0 01-.88 3.06 12.51 12.51 0 01-.79 1.44 1.16 1.16 0 01-.32.32 4.82 4.82 0 01-1.76.33 4.12 4.12 0 01-2.22-.91 15.37 15.37 0 01-2.7-2.52 32.6 32.6 0 01-3.17-4.46q-1.76-2.87-3.64-6.78l-1-1.89q-1-1.81-2.67-5.31t-3-6.75a4.28 4.28 0 00-1.56-2.08l-.33-.2a4.76 4.76 0 00-1-.55 6.43 6.43 0 00-1.5-.42L4.21 3.3c-1.82 0-3.06.42-3.71 1.24l-.27.39a2.28 2.28 0 00-.19 1.05 5.22 5.22 0 00.39 1.76q3.92 9.18 8.51 17.72t8 13.76q3.39 5.22 6.91 9.84t4.66 5.93c.76.87 1.36 1.52 1.79 2l1.63 1.56a38.36 38.36 0 004.6 3.75 79.65 79.65 0 006.71 4.3 36.93 36.93 0 008.57 3.46 29.47 29.47 0 009.52 1.07h7.5a5.21 5.21 0 003.45-1.43l.26-.33a4.12 4.12 0 00.48-1.21 6.26 6.26 0 00.23-1.79 21.43 21.43 0 01.43-5.05 12.88 12.88 0 011.11-3.38 7.8 7.8 0 011.4-1.93 5.57 5.57 0 011.11-.94 3 3 0 01.52-.23c1-.35 2.27 0 3.68 1a21.66 21.66 0 014 3.78c1.24 1.5 2.72 3.18 4.46 5.05a30.58 30.58 0 004.56 4.17l1.31.78a15.73 15.73 0 003.39 1.44 7.33 7.33 0 003.65.33l16.68-.27a7.61 7.61 0 003.85-.81 3.22 3.22 0 001.62-1.79 5 5 0 000-2.22 8.85 8.85 0 00-.46-1.73zm0 0"/></g></svg>