<svg data-name="Слой 1" xmlns="http://www.w3.org/2000/svg" viewBox="0 0 41.57 76.9"><defs><clipPath id="a" transform="translate(-939 -345.9)"><path fill="none" d="M939 346h42v76.9h-42z"/></clipPath></defs><g clip-path="url(#a)"><path d="M40 .02H30c-11.2 0-18.45 7.43-18.45 18.93v8.72h-10a1.57 1.57 0 00-1.57 1.57v12.65a1.56 1.56 0 001.57 1.56h10v31.9a1.57 1.57 0 001.57 1.57H26.2a1.57 1.57 0 001.57-1.57v-31.9h11.72a1.56 1.56 0 001.57-1.56V29.22a1.61 1.61 0 00-.46-1.11 1.57 1.57 0 00-1.11-.46H27.81v-7.39c0-3.56.85-5.36 5.48-5.36H40a1.56 1.56 0 001.56-1.56V1.59A1.56 1.56 0 0040 .02zm0 0"/></g></svg>