<svg data-name="Слой 1" xmlns="http://www.w3.org/2000/svg" viewBox="0 0 135.25 135.25"><path d="M97.93 0H37.32A37.36 37.36 0 000 37.32v60.61a37.36 37.36 0 0037.32 37.32h60.61a37.37 37.37 0 0037.32-37.32V37.32A37.36 37.36 0 0097.93 0zm25.32 97.93a25.35 25.35 0 01-25.32 25.32H37.32A25.35 25.35 0 0112 97.93V37.32A25.35 25.35 0 0137.32 12h60.61a25.35 25.35 0 0125.32 25.32zm0 0"/><path d="M67.62 32.78a34.85 34.85 0 1034.86 34.85 34.89 34.89 0 00-34.86-34.85zm0 57.69a22.85 22.85 0 1122.86-22.84 22.87 22.87 0 01-22.86 22.84zm0 0M103.94 22.6a8.81 8.81 0 106.22 2.58 8.83 8.83 0 00-6.22-2.58zm0 0"/></svg>